<svg width="16" height="12" viewBox="0 0 16 12" fill="none" xmlns="http://www.w3.org/2000/svg">
<path d="M6.6 0C6.2675 0 6 0.2675 6 0.6C6 0.9325 6.2675 1.2 6.6 1.2H8.015L8.5775 2.4175L6.2 4.2C5.365 3.5725 4.325 3.2 3.2 3.2H1.8C1.4675 3.2 1.2 3.4675 1.2 3.8C1.2 4.1325 1.4675 4.4 1.8 4.4H3.2C5.1625 4.4 6.78 5.89 6.98 7.8H6.345C6.065 6.32 4.7625 5.2 3.2 5.2C1.4325 5.2 0 6.6325 0 8.4C0 10.1675 1.4325 11.6 3.2 11.6C4.7625 11.6 6.0625 10.48 6.345 9H7.6C7.9325 9 8.2 8.7325 8.2 8.4V7.8375C8.2 6.71 8.8425 5.7025 9.8375 5.145L10.14 5.7975C9.33 6.3775 8.8025 7.3275 8.8025 8.4C8.8025 10.1675 10.235 11.6 12.0025 11.6C13.77 11.6 15.2025 10.1675 15.2025 8.4C15.2025 6.6325 13.77 5.2 12.0025 5.2C11.735 5.2 11.4775 5.2325 11.23 5.295L10.445 3.6H11.8C12.1325 3.6 12.4 3.3325 12.4 3V1.8C12.4 1.4675 12.1325 1.2 11.8 1.2H10.4675C10.295 1.2 10.125 1.255 9.9875 1.36L9.56 1.68L8.945 0.3475C8.8475 0.135 8.635 0 8.4 0H6.6ZM10.745 7.11L11.455 8.65C11.595 8.95 11.95 9.0825 12.25 8.9425C12.55 8.8025 12.6825 8.4475 12.5425 8.1475L11.83 6.6075C11.885 6.6025 11.94 6.6 11.9975 6.6C12.9925 6.6 13.7975 7.405 13.7975 8.4C13.7975 9.395 12.9925 10.2 11.9975 10.2C11.0025 10.2 10.1975 9.395 10.1975 8.4C10.1975 7.895 10.405 7.4375 10.7425 7.11H10.745ZM3.2 10.2C2.205 10.2 1.4 9.395 1.4 8.4C1.4 7.405 2.205 6.6 3.2 6.6C3.9825 6.6 4.65 7.1 4.8975 7.8H3.2C2.8675 7.8 2.6 8.0675 2.6 8.4C2.6 8.7325 2.8675 9 3.2 9H4.8975C4.65 9.7 3.9825 10.2 3.2 10.2Z" fill="black"/>
</svg>
